<svg width="102" height="48" viewBox="0 0 102 48" fill="none" xmlns="http://www.w3.org/2000/svg">
<g clip-path="url(#clip0_26_2)">
<path d="M14.3375 15.925C15.8 15.925 16.9625 17.125 16.9625 18.5875C16.9625 20.05 15.8 21.2125 14.3375 21.2125H12.3125V26.4625L17.225 37H22.8125L17.6 25.75C20.3375 24.5125 22.2125 21.775 22.2125 18.5875C22.2125 14.2375 18.6875 10.675 14.3375 10.675H4.0625V36.9625H9.3125V15.925H14.3375Z" fill="#E18437"/>
<path d="M39.9031 20.8375L39.5281 22.375C38.0281 21.1 36.0781 20.35 33.9781 20.35C29.2156 20.35 25.3906 24.1375 25.3906 28.9C25.3906 33.625 29.2156 37.45 33.9781 37.45C36.0781 37.45 38.0281 36.7 39.5281 35.425V37H43.5031V20.8375H39.9031ZM37.5406 32.0125C36.7531 32.8375 35.7031 33.2875 34.5781 33.2875C33.4531 33.2875 32.4031 32.8375 31.5781 32.0125C30.7906 31.15 30.3406 30.0625 30.3406 28.9C30.3406 27.7375 30.7906 26.6125 31.5781 25.7875C32.4031 24.9625 33.4531 24.5125 34.5781 24.5125C35.7031 24.5125 36.7531 24.9625 37.5406 25.7875C38.3656 26.6125 38.7781 27.7375 38.7781 28.9C38.7781 30.0625 38.3656 31.15 37.5406 32.0125ZM60.8557 37H65.2807V9.1H60.8557V22.7875C59.3182 21.2875 57.1807 20.35 54.8557 20.35C50.1307 20.35 46.3057 24.2125 46.3057 28.9375C46.3057 33.7 50.1307 37.525 54.8557 37.525C57.1807 37.525 59.3182 36.5875 60.8557 35.0875V37ZM51.2557 28.9375C51.2557 27.775 51.7057 26.6875 52.4932 25.825C53.2807 25 54.3307 24.55 55.4557 24.55C56.5807 24.55 57.6682 25 58.4557 25.825C59.2432 26.6875 59.6932 27.775 59.6932 28.9375C59.6932 30.1 59.2432 31.225 58.4557 32.05C57.6682 32.875 56.5807 33.325 55.4557 33.325C54.3307 33.325 53.2807 32.875 52.4932 32.05C51.7057 31.225 51.2557 30.1 51.2557 28.9375ZM69.0151 15.9625V10.7125H73.8526V15.9625H69.0151ZM69.0151 37V20.8375H73.8526V37H69.0151ZM85.4021 20.35C80.4521 20.35 76.4771 24.175 76.4771 28.9C76.4771 33.6625 80.4521 37.45 85.4021 37.45C90.3896 37.45 94.3646 33.6625 94.3646 28.9C94.3646 24.175 90.3896 20.35 85.4021 20.35ZM88.4396 32.05C87.6146 32.875 86.6021 33.325 85.4396 33.325C84.3521 33.325 83.2646 32.875 82.5146 32.05C81.6521 31.1875 81.2396 30.1 81.2396 28.9C81.2396 27.7375 81.6521 26.6125 82.5146 25.7875C83.2646 24.925 84.3521 24.475 85.4396 24.475C86.6021 24.475 87.6146 24.925 88.4396 25.7875C89.2271 26.6125 89.6396 27.7 89.6396 28.8625C89.6396 30.0625 89.2271 31.1875 88.4396 32.05Z" fill="white"/>
</g>
<defs>
<clipPath id="clip0_26_2">
<rect width="102" height="48" fill="white"/>
</clipPath>
</defs>
</svg>
