<svg width="145" height="51" viewBox="0 0 145 51" fill="none" xmlns="http://www.w3.org/2000/svg">
<path d="M44.4545 26.7273C44.4545 31.8485 43.4697 36.1894 41.5 39.75C39.5303 43.3106 36.8636 46.0152 33.5 47.8636C30.1515 49.7121 26.3939 50.6364 22.2273 50.6364C18.0455 50.6364 14.2803 49.7045 10.9318 47.8409C7.58333 45.9773 4.92424 43.2727 2.95455 39.7273C1 36.1667 0.0227273 31.8333 0.0227273 26.7273C0.0227273 21.6061 1 17.2652 2.95455 13.7045C4.92424 10.1439 7.58333 7.43939 10.9318 5.59091C14.2803 3.74242 18.0455 2.81818 22.2273 2.81818C26.3939 2.81818 30.1515 3.74242 33.5 5.59091C36.8636 7.43939 39.5303 10.1439 41.5 13.7045C43.4697 17.2652 44.4545 21.6061 44.4545 26.7273ZM32.9545 26.7273C32.9545 23.697 32.5227 21.1364 31.6591 19.0455C30.8106 16.9545 29.5833 15.3712 27.9773 14.2955C26.3864 13.2197 24.4697 12.6818 22.2273 12.6818C20 12.6818 18.0833 13.2197 16.4773 14.2955C14.8712 15.3712 13.6364 16.9545 12.7727 19.0455C11.9242 21.1364 11.5 23.697 11.5 26.7273C11.5 29.7576 11.9242 32.3182 12.7727 34.4091C13.6364 36.5 14.8712 38.0833 16.4773 39.1591C18.0833 40.2348 20 40.7727 22.2273 40.7727C24.4697 40.7727 26.3864 40.2348 27.9773 39.1591C29.5833 38.0833 30.8106 36.5 31.6591 34.4091C32.5227 32.3182 32.9545 29.7576 32.9545 26.7273Z" fill="#9A5DFD"/>
<path d="M63.7727 50.5C61.197 50.5 58.8561 49.8333 56.75 48.5C54.6439 47.1667 52.9621 45.1667 51.7045 42.5C50.447 39.8333 49.8182 36.5227 49.8182 32.5682C49.8182 28.4621 50.4697 25.0833 51.7727 22.4318C53.0758 19.7803 54.7803 17.8182 56.8864 16.5455C59.0076 15.2727 61.2879 14.6364 63.7273 14.6364C65.5606 14.6364 67.1288 14.9545 68.4318 15.5909C69.7348 16.2121 70.8106 17.0152 71.6591 18C72.5076 18.9848 73.1515 20.0076 73.5909 21.0682H73.8182V3.45454H84.9318V50H73.9318V44.3409H73.5909C73.1212 45.4167 72.4545 46.4242 71.5909 47.3636C70.7273 48.303 69.6439 49.0606 68.3409 49.6364C67.053 50.2121 65.5303 50.5 63.7727 50.5ZM67.6364 41.8409C68.9848 41.8409 70.1364 41.4621 71.0909 40.7045C72.0455 39.9318 72.7803 38.8485 73.2955 37.4545C73.8106 36.0606 74.0682 34.4242 74.0682 32.5455C74.0682 30.6364 73.8106 28.9924 73.2955 27.6136C72.7955 26.2348 72.0606 25.1742 71.0909 24.4318C70.1364 23.6894 68.9848 23.3182 67.6364 23.3182C66.2576 23.3182 65.0909 23.697 64.1364 24.4545C63.1818 25.2121 62.4545 26.2803 61.9545 27.6591C61.4697 29.0379 61.2273 30.6667 61.2273 32.5455C61.2273 34.4242 61.4773 36.0606 61.9773 37.4545C62.4773 38.8485 63.197 39.9318 64.1364 40.7045C65.0909 41.4621 66.2576 41.8409 67.6364 41.8409ZM91.9602 50V15.0909H103.074V50H91.9602ZM97.5284 11.0227C95.9678 11.0227 94.6269 10.5076 93.5057 9.47727C92.3845 8.43182 91.8239 7.17424 91.8239 5.70454C91.8239 4.25 92.3845 3.00757 93.5057 1.97727C94.6269 0.931816 95.9678 0.409088 97.5284 0.409088C99.1042 0.409088 100.445 0.931816 101.551 1.97727C102.672 3.00757 103.233 4.25 103.233 5.70454C103.233 7.17424 102.672 8.43182 101.551 9.47727C100.445 10.5076 99.1042 11.0227 97.5284 11.0227ZM126.443 50.6591C122.777 50.6591 119.625 49.9091 116.989 48.4091C114.367 46.8939 112.345 44.7879 110.92 42.0909C109.511 39.3788 108.807 36.2348 108.807 32.6591C108.807 29.0682 109.511 25.9242 110.92 23.2273C112.345 20.5152 114.367 18.4091 116.989 16.9091C119.625 15.3939 122.777 14.6364 126.443 14.6364C130.11 14.6364 133.254 15.3939 135.875 16.9091C138.511 18.4091 140.534 20.5152 141.943 23.2273C143.367 25.9242 144.08 29.0682 144.08 32.6591C144.08 36.2348 143.367 39.3788 141.943 42.0909C140.534 44.7879 138.511 46.8939 135.875 48.4091C133.254 49.9091 130.11 50.6591 126.443 50.6591ZM126.511 42.2727C127.845 42.2727 128.973 41.8636 129.898 41.0455C130.822 40.2273 131.527 39.0909 132.011 37.6364C132.511 36.1818 132.761 34.5 132.761 32.5909C132.761 30.6515 132.511 28.9545 132.011 27.5C131.527 26.0455 130.822 24.9091 129.898 24.0909C128.973 23.2727 127.845 22.8636 126.511 22.8636C125.133 22.8636 123.966 23.2727 123.011 24.0909C122.072 24.9091 121.352 26.0455 120.852 27.5C120.367 28.9545 120.125 30.6515 120.125 32.5909C120.125 34.5 120.367 36.1818 120.852 37.6364C121.352 39.0909 122.072 40.2273 123.011 41.0455C123.966 41.8636 125.133 42.2727 126.511 42.2727Z" fill="white"/>
</svg>
